<svg version="1.2" xmlns="http://www.w3.org/2000/svg" viewBox="0 0 368 369" width="368" height="369">
	<title>9140009-ai</title>
	<defs>
		<linearGradient id="g1" x2="1" gradientUnits="userSpaceOnUse" gradientTransform="matrix(367.431,0,0,367.431,.284,.801)">
			<stop offset="0" stop-color="#d26ee0"/>
			<stop offset=".5" stop-color="#924aca"/>
			<stop offset="1" stop-color="#3a3e9c"/>
		</linearGradient>
		<linearGradient id="g2" x2="1" gradientUnits="userSpaceOnUse" gradientTransform="matrix(385.105,-158.988,82.321,199.401,-85.183,296.857)">
			<stop offset="0" stop-color="#d26ee0"/>
			<stop offset=".5" stop-color="#924aca"/>
			<stop offset="1" stop-color="#3a3e9c"/>
		</linearGradient>
		<linearGradient id="g3" x2="1" gradientUnits="userSpaceOnUse" gradientTransform="matrix(-327.853,351.449,-166.655,-155.466,467.169,137.02)">
			<stop offset="0" stop-color="#d26ee0"/>
			<stop offset=".5" stop-color="#924aca"/>
			<stop offset="1" stop-color="#3a3e9c"/>
		</linearGradient>
		<linearGradient id="g4" x2="1" gradientUnits="userSpaceOnUse" gradientTransform="matrix(0,71.719,-40.88,0,407.227,70.055)">
			<stop offset="0" stop-color="#d26ee0"/>
			<stop offset=".5" stop-color="#924aca"/>
			<stop offset="1" stop-color="#3a3e9c"/>
		</linearGradient>
		<linearGradient id="g5" x2="1" gradientUnits="userSpaceOnUse" gradientTransform="matrix(237.95,117.31,-112.277,227.741,179.398,22.774)">
			<stop offset="0" stop-color="#d26ee0"/>
			<stop offset=".5" stop-color="#924aca"/>
			<stop offset="1" stop-color="#3a3e9c"/>
		</linearGradient>
		<linearGradient id="g6" x2="1" gradientUnits="userSpaceOnUse" gradientTransform="matrix(0,71.719,-88.832,0,274.219,70.055)">
			<stop offset="0" stop-color="#d26ee0"/>
			<stop offset=".5" stop-color="#924aca"/>
			<stop offset="1" stop-color="#3a3e9c"/>
		</linearGradient>
		<linearGradient id="g7" x2="1" gradientUnits="userSpaceOnUse" gradientTransform="matrix(29.897,-137.526,145.454,31.62,180.188,285.563)">
			<stop offset="0" stop-color="#000000" stop-opacity="0"/>
			<stop offset="1" stop-color="#000000" stop-opacity="1"/>
		</linearGradient>
		<linearGradient id="g8" x2="1" gradientUnits="userSpaceOnUse" gradientTransform="matrix(232.857,-157.928,62.558,92.238,20.415,45.425)">
			<stop offset="0" stop-color="#e8ffff" stop-opacity="0"/>
			<stop offset="1" stop-color="#ffffff" stop-opacity="1"/>
		</linearGradient>
		<linearGradient id="g9" x2="1" gradientUnits="userSpaceOnUse" gradientTransform="matrix(282.114,-177.352,86.587,137.734,151.764,168.792)">
			<stop offset="0" stop-color="#e8ffff" stop-opacity="0"/>
			<stop offset="1" stop-color="#ffffff" stop-opacity="1"/>
		</linearGradient>
		<linearGradient id="g10" x2="1" gradientUnits="userSpaceOnUse" gradientTransform="matrix(.74,133.142,-149.377,.83,70.908,233)">
			<stop offset="0" stop-color="#000000" stop-opacity="0"/>
			<stop offset="1" stop-color="#000000" stop-opacity="1"/>
		</linearGradient>
	</defs>
	<style>
		.s0 { fill: url(#g1) } 
		.s1 { fill: url(#g2) } 
		.s2 { fill: url(#g3) } 
		.s3 { fill: url(#g4) } 
		.s4 { fill: url(#g5) } 
		.s5 { fill: url(#g6) } 
		.s6 { mix-blend-mode: overlay;fill: url(#g7) } 
		.s7 { mix-blend-mode: overlay;fill: url(#g8) } 
		.s8 { mix-blend-mode: overlay;fill: url(#g9) } 
		.s9 { mix-blend-mode: overlay;fill: url(#g10) } 
	</style>
	<filter id="f0">
		<feFlood flood-color="#00ffea" flood-opacity=".04" />
		<feBlend mode="normal" in2="SourceGraphic"/>
		<feComposite in2="SourceAlpha" operator="in" />
	</filter>
	<g id="OBJECTS" filter="url(#f0)">
		<g id="&lt;Group&gt;">
			<g id="&lt;Group&gt;">
				<g id="&lt;Group&gt;">
					<path id="&lt;Compound Path&gt;" class="s0" d="m367.6 177.8q-0.1-2.7-0.3-5.3c-1.2-19.1-5.4-37.5-12-54.5q-2.6-6.6-5.6-12.9c-5.4 0.8-10.5 2.9-14.9 5.8-2.1 1.4-4.1 3-5.9 4.7-4.3-2.5-9-4.7-13.8-6.4-8.3-2.9-17.2-4.5-26.5-4.5q-3.5 0-7 0.3-0.4 0-0.8 0c-4.3-5.9-9-11.4-14.3-16.5-12.5 5-21.8 16.6-23.4 30.5-13.8 9.6-24.4 23.5-29.9 39.7q-0.5 3.1-1.7 5.8c-4.1 9.7-13.8 16.6-25 16.6q-1.2 0-2.3-0.1c0.9 13.6 4.9 26.4 11.3 37.7-11.4-3.8-23.6-5.8-36.2-5.8-30.3 0-57.8 11.5-78.6 30.4-12.9-19.3-20.4-42.5-20.4-67.5 0-67.2 54.4-121.6 121.6-121.6 10.2 0 20.1 1.3 29.5 3.6q2.1 0.5 4.2 1.1 2.4 0.5 5 0.5c15 0 27.2-12.2 27.2-27.2 0-12.1-7.9-22.3-18.9-25.9q0 0 0 0-1.8-0.4-3.7-0.9 0 0-0.1 0c-13.2-3-27-4.6-41.1-4.6-101.5 0-183.7 82.3-183.7 183.7 0 46 16.9 88 44.8 120.3 33.7 38.8 83.4 63.4 138.9 63.4 33.2 0 64.4-8.8 91.3-24.2 51.4-29.5 87.2-83.3 91.9-145.6q0.2-1.4 0.2-2.8 0.3-5.5 0.3-11.1 0-3.4-0.1-6.7z"/>
				</g>
			</g>
			<path id="&lt;Path&gt;" class="s1" d="m367.4 195.6c-3.8 63.6-39.9 118.4-92.1 148.4-26.9 15.4-58.1 24.2-91.3 24.2-55.5 0-105.2-24.6-138.9-63.4 5.3-24.2 18-45.5 35.6-61.5 20.8-18.9 48.3-30.4 78.6-30.4 12.6 0 24.8 2 36.2 5.8 0.7 0 4.8 7.5 5.5 8.4q3 4.3 6.6 8.1c4.7 5.1 10.1 9.7 15.9 13.6 26.9 18.1 64.5 19.7 94.6 9.3 10.4-3.6 20.1-10.7 27.7-18.5 11.6-12 19.2-27.5 21.6-44z"/>
			<path id="&lt;Path&gt;" class="s2" d="m247.8 32.2c0 15-12.2 27.2-27.2 27.2q-2.6 0-5-0.5-2.1-0.6-4.2-1.1c-9.4-2.3-19.3-3.6-29.5-3.6-67.2 0-121.6 54.4-121.6 121.6 0 25 7.5 48.2 20.4 67.5-17.6 16-30.3 37.3-35.6 61.5-27.9-32.3-44.8-74.3-44.8-120.3 0-101.4 82.2-183.7 183.7-183.7 14.1 0 27.9 1.6 41.1 4.6q0.1 0 0.1 0 1.9 0.5 3.7 0.9 0 0 0 0c11 3.6 18.9 13.8 18.9 25.9z"/>
			<path id="&lt;Path&gt;" class="s3" d="m367.3 172.5c-1.7-11.8-6-22.7-12.4-32.2q0 0 0-0.1-2.2-3.3-4.7-6.4c-6-7.2-13.2-13.4-21.3-18.2 1.8-1.7 3.8-3.3 5.9-4.7 4.4-2.9 9.5-5 14.9-5.8q3 6.3 5.6 12.9c6.6 17 10.8 35.4 12 54.5z"/>
			<path id="&lt;Path&gt;" class="s4" d="m367.7 184.5q0 5.6-0.3 11.1c0 5.1-2.2 11-3.9 15.7-1.9 5.1-4.2 10-7.1 14.6-5.6 9.2-13.1 17.1-21.8 23.3-23.4 16.6-56 18-83.2 11.9-23-5.2-43-20.7-55-40.9q-0.5-0.8-0.9-1.5c-6.4-11.3-10.4-24.1-11.3-37.7q1.1 0.1 2.3 0.1c11.2 0 20.9-6.9 25-16.6q1.2-2.7 1.7-5.8c5.5-16.2 16.1-30.1 29.9-39.7 10.9-7.6 23.7-12.6 37.7-14q0.4 0 0.8 0 3.5-0.3 7-0.3c9.3 0 18.2 1.6 26.5 4.5 4.8 1.7 9.5 3.9 13.8 6.4 8.1 4.8 15.3 11 21.3 18.2q2.5 3.1 4.7 6.5c6.4 9.5 10.7 20.4 12.4 32.2q0.2 2.6 0.3 5.3 0.1 3.3 0.1 6.7z"/>
			<path id="&lt;Path&gt;" class="s5" d="m280.8 105c-14 1.4-26.8 6.4-37.7 14 1.6-13.9 10.9-25.5 23.4-30.5 5.3 5.1 10 10.6 14.3 16.5z"/>
			<path id="&lt;Path&gt;" class="s6" d="m345.8 239.6c-7.6 7.8-17.3 14.9-27.7 18.5-30.1 10.4-67.7 8.8-94.6-9.3-5.8-3.9-11.2-8.5-15.9-13.6q-3.6-3.8-6.6-8.1c-0.7-0.9-4.8-8.4-5.5-8.4-10.1-3.3-20.8-5.3-31.9-5.7-3.3 35.6 30.9 67.1 65 81 23.2 9.3 24.7 43.2 12.4 64.8q-0.2 0.2-0.3 0.5c12.1-3.9 23.7-9.1 34.6-15.3 52.2-30 88.3-84.8 92.1-148.4-2.4 16.5-10 32-21.6 44z"/>
			<path id="&lt;Path&gt;" class="s7" d="m211.4 57.8q2.1 0.5 4.2 1.1 2.4 0.5 5 0.5c15 0 27.2-12.2 27.2-27.2 0-12.1-7.9-22.3-18.9-25.9q0 0 0 0-1.8-0.4-3.7-0.9 0 0-0.1 0c-13.2-3-27-4.6-41.1-4.6-86.4 0-158.8 59.6-178.5 140q2.8-3.6 5.7-7.1c38.9-46 97.7-80.3 157-78.7 4.5-0.5 9-0.8 13.7-0.8 10.2 0 20.1 1.3 29.5 3.6z"/>
			<path id="&lt;Path&gt;" class="s8" d="m350.2 133.8c-6-7.2-13.2-13.4-21.3-18.2-4.3-2.5-9-4.7-13.8-6.4-8.3-2.9-17.2-4.5-26.5-4.5q-3.5 0-7 0.3-0.4 0-0.8 0c-14 1.4-26.8 6.4-37.7 14-13.8 9.6-24.4 23.5-29.9 39.7q-0.5 3.1-1.7 5.8c-4.1 9.7-13.7 16.5-24.9 16.6 14.7 3.1 31.1-0.9 37.4-13.5 20-44.7 69.4-50.9 111-37 7.7 2.8 14.9 6.8 21.3 11.8q-0.7-1.1-1.4-2.1-2.2-3.4-4.7-6.5z"/>
			<path id="&lt;Path&gt;" class="s9" d="m12.1 249.5c7.7 20.4 19 39.1 33 55.3 4.9-22.7 16.4-42.9 32.4-58.5-21.3 4.6-43.4 5.4-65.4 3.2z"/>
		</g>
	</g>
</svg>